<svg width="100" height="47" viewBox="0 0 100 47" fill="none" xmlns="http://www.w3.org/2000/svg">
<rect width="100" height="47" rx="10" fill="#ED8438"/>
<path d="M19.882 22H11.08V9.994H19.882V12.604H14.176V14.602H19.756V17.23H14.176V19.39H19.882V22ZM35.3056 22H32.2096V13.9L29.1676 22H27.7996L24.7756 13.9V22H21.6796V9.994H25.9816L28.4836 16.798L31.0036 9.994H35.3056V22ZM43.2608 22.216C39.6608 22.216 36.8528 19.696 36.8528 16.006C36.8528 12.298 39.6608 9.796 43.2608 9.796C46.2488 9.796 47.7968 11.434 48.5888 13.018L45.9248 14.278C45.5288 13.324 44.5028 12.532 43.2608 12.532C41.3888 12.532 40.0028 14.044 40.0028 16.006C40.0028 17.968 41.3888 19.48 43.2608 19.48C44.5028 19.48 45.5288 18.688 45.9248 17.734L48.5888 18.994C47.8148 20.542 46.2488 22.216 43.2608 22.216Z" fill="white"/>
<path d="M14.164 38H12.76V31.232H10.336V29.996H16.588V31.232H14.164V38ZM23.2618 38H17.7778V29.996H23.2618V31.232H19.1818V33.308H23.1778V34.544H19.1818V36.764H23.2618V38ZM28.4836 38.144C26.1796 38.144 24.3436 36.464 24.3436 34.004C24.3436 31.544 26.1796 29.864 28.4836 29.864C30.1636 29.864 31.1596 30.704 31.7596 31.664L30.5596 32.276C30.1756 31.616 29.4076 31.112 28.4836 31.112C26.9596 31.112 25.7836 32.324 25.7836 34.004C25.7836 35.684 26.9596 36.896 28.4836 36.896C29.4076 36.896 30.1756 36.404 30.5596 35.732L31.7596 36.344C31.1476 37.304 30.1636 38.144 28.4836 38.144ZM39.8553 38H38.4513V34.508H34.2873V38H32.8833V29.996H34.2873V33.272H38.4513V29.996H39.8553V38ZM48.4911 38H47.1351L42.9591 32.168V38H41.5551V29.996H42.9951L47.0871 35.672V29.996H48.4911V38ZM49.8318 34.004C49.8318 31.616 51.5238 29.864 53.9238 29.864C56.3238 29.864 58.0158 31.616 58.0158 34.004C58.0158 36.392 56.3238 38.144 53.9238 38.144C51.5238 38.144 49.8318 36.392 49.8318 34.004ZM56.5758 34.004C56.5758 32.348 55.5318 31.112 53.9238 31.112C52.3038 31.112 51.2718 32.348 51.2718 34.004C51.2718 35.648 52.3038 36.896 53.9238 36.896C55.5318 36.896 56.5758 35.648 56.5758 34.004ZM64.2996 38H59.3676V29.996H60.7716V36.764H64.2996V38ZM64.8436 34.004C64.8436 31.616 66.5356 29.864 68.9356 29.864C71.3356 29.864 73.0276 31.616 73.0276 34.004C73.0276 36.392 71.3356 38.144 68.9356 38.144C66.5356 38.144 64.8436 36.392 64.8436 34.004ZM71.5876 34.004C71.5876 32.348 70.5436 31.112 68.9356 31.112C67.3156 31.112 66.2836 32.348 66.2836 34.004C66.2836 35.648 67.3156 36.896 68.9356 36.896C70.5436 36.896 71.5876 35.648 71.5876 34.004ZM74.0193 34.004C74.0193 31.496 75.9033 29.864 78.2193 29.864C79.7793 29.864 80.7993 30.608 81.4473 31.532L80.2953 32.18C79.8753 31.58 79.1193 31.112 78.2193 31.112C76.6353 31.112 75.4593 32.324 75.4593 34.004C75.4593 35.684 76.6353 36.908 78.2193 36.908C79.0353 36.908 79.7553 36.524 80.1153 36.188V34.94H77.7273V33.704H81.5193V36.704C80.7273 37.58 79.6113 38.156 78.2193 38.156C75.9033 38.156 74.0193 36.512 74.0193 34.004ZM86.4771 38H85.0731V34.676L81.9651 29.996H83.5731L85.7811 33.428L87.9651 29.996H89.5731L86.4771 34.676V38Z" fill="white" fill-opacity="0.85"/>
</svg>
