<svg width="198" height="60" viewBox="0 0 198 42" fill="none" xmlns="http://www.w3.org/2000/svg">
<rect width="58" height="42" rx="10" fill="#ED8438"/>
<rect x="0.5" y="0.5" width="197" height="41" rx="9.5" stroke="#ED8438"/>
<path d="M19.504 27H11.278V14.994H19.504V16.848H13.384V19.962H19.378V21.816H13.384V25.146H19.504V27ZM34.1407 27H32.0347V17.91L28.3447 27H27.4447L23.7727 17.91V27H21.6667V14.994H24.6367L27.8947 23.076L31.1707 14.994H34.1407V27ZM42.366 27.216C38.91 27.216 36.156 24.696 36.156 21.006C36.156 17.316 38.91 14.796 42.366 14.796C44.886 14.796 46.38 16.056 47.28 17.496L45.48 18.414C44.904 17.424 43.752 16.668 42.366 16.668C40.08 16.668 38.316 18.486 38.316 21.006C38.316 23.526 40.08 25.344 42.366 25.344C43.752 25.344 44.904 24.606 45.48 23.598L47.28 24.516C46.362 25.956 44.886 27.216 42.366 27.216Z" fill="white"/>
<path d="M74.246 27H72.14V16.848H68.504V14.994H77.882V16.848H74.246V27ZM87.8927 27H79.6667V14.994H87.8927V16.848H81.7727V19.962H87.7667V21.816H81.7727V25.146H87.8927V27ZM95.7253 27.216C92.2693 27.216 89.5153 24.696 89.5153 21.006C89.5153 17.316 92.2693 14.796 95.7253 14.796C98.2453 14.796 99.7393 16.056 100.639 17.496L98.8393 18.414C98.2633 17.424 97.1113 16.668 95.7253 16.668C93.4393 16.668 91.6753 18.486 91.6753 21.006C91.6753 23.526 93.4393 25.344 95.7253 25.344C97.1113 25.344 98.2633 24.606 98.8393 23.598L100.639 24.516C99.7213 25.956 98.2453 27.216 95.7253 27.216ZM112.783 27H110.677V21.762H104.431V27H102.325V14.994H104.431V19.908H110.677V14.994H112.783V27ZM125.737 27H123.703L117.439 18.252V27H115.333V14.994H117.493L123.631 23.508V14.994H125.737V27ZM127.748 21.006C127.748 17.424 130.286 14.796 133.886 14.796C137.486 14.796 140.024 17.424 140.024 21.006C140.024 24.588 137.486 27.216 133.886 27.216C130.286 27.216 127.748 24.588 127.748 21.006ZM137.864 21.006C137.864 18.522 136.298 16.668 133.886 16.668C131.456 16.668 129.908 18.522 129.908 21.006C129.908 23.472 131.456 25.344 133.886 25.344C136.298 25.344 137.864 23.472 137.864 21.006ZM149.449 27H142.051V14.994H144.157V25.146H149.449V27ZM150.265 21.006C150.265 17.424 152.803 14.796 156.403 14.796C160.003 14.796 162.541 17.424 162.541 21.006C162.541 24.588 160.003 27.216 156.403 27.216C152.803 27.216 150.265 24.588 150.265 21.006ZM160.381 21.006C160.381 18.522 158.815 16.668 156.403 16.668C153.973 16.668 152.425 18.522 152.425 21.006C152.425 23.472 153.973 25.344 156.403 25.344C158.815 25.344 160.381 23.472 160.381 21.006ZM164.029 21.006C164.029 17.244 166.855 14.796 170.329 14.796C172.669 14.796 174.199 15.912 175.171 17.298L173.443 18.27C172.813 17.37 171.679 16.668 170.329 16.668C167.953 16.668 166.189 18.486 166.189 21.006C166.189 23.526 167.953 25.362 170.329 25.362C171.553 25.362 172.633 24.786 173.173 24.282V22.41H169.591V20.556H175.279V25.056C174.091 26.37 172.417 27.234 170.329 27.234C166.855 27.234 164.029 24.768 164.029 21.006ZM182.716 27H180.61V22.014L175.948 14.994H178.36L181.672 20.142L184.948 14.994H187.36L182.716 22.014V27Z" fill="#ED8438"/>
</svg>
