<?xml version="1.0" encoding="UTF-8"?> <svg xmlns="http://www.w3.org/2000/svg" width="178" height="31" viewBox="0 0 178 31" fill="none"><path d="M4.41211 4.98423C7.30271 2.24577 11.1061 0.572266 15.2138 0.572266C19.3215 0.572266 23.1249 2.24577 26.0155 4.98423L20.6908 10.309C19.1694 8.93979 17.1916 8.1791 15.2138 8.1791C13.236 8.1791 11.2583 8.93979 9.88903 10.4612L4.41211 4.98423Z" fill="#E30040"></path><path d="M20.9949 29.7817C22.8205 29.0211 24.494 27.9561 25.8632 26.4347L30.4274 30.9988V15.7852H15.2137L20.5385 21.1099C19.7778 21.8706 19.0171 22.327 18.1043 22.7834C17.1915 23.2399 16.2786 23.392 15.2137 23.392C14.1487 23.392 13.2359 23.2399 12.3231 22.7834C11.4103 22.327 10.4974 21.8706 9.88889 21.1099C9.12821 20.3493 8.6718 19.5886 8.21538 18.6758C7.75897 17.7629 7.60684 16.8501 7.60684 15.7852H0C0 17.7629 0.45641 19.7407 1.21709 21.5664C1.97778 23.392 3.04274 25.0655 4.41197 26.5869C5.7812 27.9561 7.4547 29.1732 9.28034 29.9339C11.2581 30.5424 13.2359 30.9988 15.2137 30.9988C17.1915 30.9988 19.1692 30.5424 20.9949 29.7817Z" fill="#E30040"></path><path d="M47.0095 21.8726C45.0317 21.8726 43.6625 21.2641 42.5975 20.1991C41.5326 19.1342 41.0762 17.4607 41.0762 15.1786C41.0762 13.6572 41.3804 12.4401 41.8369 11.5273C42.2933 10.6145 43.0539 9.85381 43.9668 9.3974C44.8796 8.94099 46.0967 8.63672 47.3138 8.63672C48.0745 8.63672 48.8351 8.78886 49.5958 8.94099C50.3565 9.09313 50.9651 9.3974 51.4215 9.85381C52.03 10.3102 52.3343 10.7666 52.6386 11.3752C52.9428 11.9837 53.095 12.5923 53.095 13.353H50.3565C50.3565 12.8965 50.2044 12.5923 50.0522 12.288C49.9001 11.9837 49.748 11.6795 49.4437 11.5273C49.1394 11.3752 48.8351 11.223 48.5309 11.0709C48.2266 10.9188 47.7702 10.9188 47.3138 10.9188C46.7052 10.9188 46.0967 11.0709 45.6403 11.223C45.1839 11.3752 44.7275 11.6795 44.4232 11.9837C44.4232 12.288 44.1189 12.7444 43.9668 13.2008C43.8146 13.6572 43.6625 14.2658 43.6625 15.0265V15.635C43.6625 16.5479 43.8146 17.3085 44.1189 17.9171C44.4232 18.5256 44.7275 18.982 45.336 19.2863C45.7924 19.5906 46.5531 19.7427 47.3138 19.7427C47.9223 19.7427 48.5309 19.5906 48.9873 19.4385C49.4437 19.2863 49.9001 18.982 50.2044 18.5256C50.5087 18.0692 50.6608 17.6128 50.6608 17.1564V17.0043H47.0095V14.7222H53.2471V21.5684H51.5736L51.2693 20.1991C50.9651 20.5034 50.5087 20.8077 50.0522 21.112C49.5958 21.4162 49.1394 21.5684 48.683 21.5684C48.2266 21.7205 47.6181 21.8726 47.0095 21.8726Z" fill="#CCCCCC"></path><path d="M59.7883 21.8707C58.7233 21.8707 57.9627 21.7185 57.202 21.2621C56.4413 20.9578 55.9849 20.3493 55.5285 19.5886C55.2242 18.8279 54.9199 17.9151 54.9199 16.698C54.9199 15.4809 55.0721 14.5681 55.5285 13.8074C55.8327 13.0468 56.4413 12.4382 57.202 12.1339C57.9627 11.8297 58.7233 11.5254 59.7883 11.5254C60.8533 11.5254 61.7661 11.6775 62.3746 12.1339C63.1353 12.4382 63.5917 13.0468 64.0481 13.8074C64.3524 14.5681 64.6567 15.4809 64.6567 16.698C64.6567 17.9151 64.5045 18.8279 64.0481 19.5886C63.7439 20.3493 63.1353 20.9578 62.3746 21.2621C61.6139 21.7185 60.8533 21.8707 59.7883 21.8707ZM59.7883 19.8929C60.3968 19.8929 60.7011 19.7407 61.0054 19.5886C61.3097 19.4365 61.6139 18.9801 61.7661 18.6758C61.9182 18.2194 62.0703 17.763 62.0703 17.1544V16.698C62.0703 16.0895 61.9182 15.4809 61.7661 15.1767C61.6139 14.7203 61.3097 14.416 61.0054 14.2639C60.7011 14.1117 60.2447 13.9596 59.7883 13.9596C59.3319 13.9596 58.8755 14.1117 58.5712 14.2639C58.2669 14.416 57.9627 14.7203 57.8105 15.1767C57.6584 15.6331 57.5062 16.0895 57.5062 16.698V17.1544C57.5062 17.763 57.6584 18.3715 57.8105 18.6758C57.9627 19.1322 58.2669 19.4365 58.5712 19.5886C58.7233 19.7407 59.1797 19.8929 59.7883 19.8929Z" fill="#CCCCCC"></path><path d="M66.3301 21.5677V8.17969H68.7643V21.5677H66.3301Z" fill="#CCCCCC"></path><path d="M74.2431 21.872C73.4824 21.872 72.8739 21.7199 72.2653 21.2634C71.6568 20.9592 71.3525 20.3506 71.0482 19.5899C70.7439 18.8293 70.5918 17.9164 70.5918 16.6993C70.5918 15.4823 70.7439 14.5694 71.0482 13.8087C71.3525 13.0481 71.8089 12.4395 72.2653 12.1352C72.8739 11.831 73.4824 11.5267 74.2431 11.5267C74.6995 11.5267 75.0038 11.5267 75.308 11.6788C75.6123 11.831 75.9166 11.9831 76.2209 12.1352C76.5251 12.2874 76.6773 12.5917 76.9815 12.8959H77.1337V8.17969H79.5679V21.5677H77.5901L77.2858 20.3506H77.1337C76.8294 20.807 76.373 21.2634 75.9166 21.5677C75.4602 21.7199 74.8516 21.872 74.2431 21.872ZM75.1559 19.7421C75.6123 19.7421 75.9166 19.5899 76.2209 19.4378C76.5251 19.2857 76.6773 18.8293 76.8294 18.525C76.9815 18.0686 76.9815 17.6122 76.9815 17.0036V16.6993C76.9815 16.2429 76.9815 15.9387 76.8294 15.4823C76.8294 15.178 76.6773 14.8737 76.5251 14.5694C76.373 14.2652 76.2209 14.113 75.9166 13.9609C75.6123 13.8087 75.308 13.8087 75.0038 13.8087C74.5474 13.8087 74.0909 13.9609 73.7867 14.113C73.4824 14.2652 73.3303 14.5694 73.1781 15.0258C73.026 15.4823 73.026 15.9387 73.026 16.5472V17.0036C73.026 17.6122 73.026 18.0686 73.1781 18.525C73.3303 18.9814 73.4824 19.2857 73.7867 19.4378C74.2431 19.5899 74.5474 19.7421 75.1559 19.7421Z" fill="#CCCCCC"></path><path d="M90.2174 21.8728C89.4567 21.8728 88.8481 21.8728 88.2396 21.7207C87.631 21.5686 87.0225 21.2643 86.5661 20.96C86.1097 20.6557 85.6533 20.1993 85.349 19.7429C85.0447 19.2865 84.8926 18.678 84.8926 17.9173V17.7651V17.613H87.4789V17.7651V17.9173C87.4789 18.3737 87.631 18.678 87.7832 18.9822C87.9353 19.2865 88.2396 19.4386 88.696 19.5908C89.1524 19.7429 89.6088 19.7429 90.0652 19.7429C90.3695 19.7429 90.6738 19.7429 90.978 19.7429C91.2823 19.7429 91.4345 19.5908 91.7387 19.5908C91.8909 19.4386 92.1951 19.4387 92.1951 19.2865C92.3473 19.1344 92.4994 18.9822 92.4994 18.8301C92.4994 18.678 92.6516 18.5258 92.6516 18.3737C92.6516 18.0694 92.4994 17.7651 92.3473 17.613C92.1951 17.4609 91.8909 17.1566 91.4345 17.0045C91.1302 16.8523 90.6738 16.7002 90.2174 16.5481C89.761 16.3959 89.3045 16.2438 88.8481 16.2438C88.3917 16.0916 87.9353 15.9395 87.4789 15.7874C87.0225 15.6352 86.5661 15.3309 86.2618 15.0267C85.9575 14.7224 85.6533 14.266 85.5011 13.8096C85.349 13.3532 85.1969 12.8968 85.1969 12.2882C85.1969 11.6797 85.349 11.0711 85.5011 10.6147C85.8054 10.1583 86.1097 9.85402 86.5661 9.54975C87.0225 9.24547 87.631 9.09334 88.0874 8.9412C88.696 8.78906 89.3045 8.78906 90.0652 8.78906C90.6738 8.78906 91.2823 8.78906 91.8909 8.9412C92.4994 9.09334 92.9558 9.24547 93.4122 9.54975C93.8686 9.85402 94.1729 10.3104 94.4772 10.7668C94.7815 11.2233 94.9336 11.8318 94.9336 12.4403V12.5925H92.3473V12.4403C92.3473 12.1361 92.1951 11.8318 92.043 11.5275C91.8909 11.2233 91.5866 11.0711 91.2823 10.919C90.978 10.7668 90.5216 10.7668 90.0652 10.7668C89.6088 10.7668 89.1524 10.7668 88.8481 10.919C88.5439 11.0711 88.2396 11.2233 88.0874 11.3754C87.9353 11.5275 87.7832 11.8318 87.7832 11.9839C87.7832 12.2882 87.9353 12.5925 88.0874 12.7446C88.2396 12.8968 88.5439 13.0489 89.0003 13.201C89.3045 13.3532 89.761 13.5053 90.2174 13.5053C90.6738 13.6574 91.1302 13.8096 91.5866 13.8096C92.043 13.8096 92.4994 14.1138 92.9558 14.266C93.4122 14.4181 93.8686 14.7224 94.1729 15.0267C94.4772 15.3309 94.7815 15.6352 95.0857 16.0916C95.2379 16.5481 95.39 17.0045 95.39 17.613C95.39 18.5258 95.2379 19.4386 94.7815 20.0472C94.3251 20.6557 93.7165 21.1122 92.9558 21.4164C92.043 21.7207 91.1302 21.8728 90.2174 21.8728Z" fill="#CCCCCC"></path><path d="M99.956 21.8713C99.3474 21.8713 98.891 21.7191 98.5867 21.567C98.2825 21.4149 97.9782 21.1106 97.826 20.6542C97.6739 20.1978 97.5218 19.8935 97.5218 19.4371V13.808H96.3047V11.8303H97.5218L97.9782 9.0918H99.956V11.8303H101.629V13.808H99.956V18.8285C99.956 19.1328 99.956 19.2849 100.108 19.5892C100.26 19.7414 100.412 19.7414 100.717 19.7414H101.629V21.4149C101.477 21.4149 101.325 21.567 101.173 21.567C101.021 21.567 100.717 21.7191 100.565 21.7191C100.412 21.8713 100.108 21.8713 99.956 21.8713Z" fill="#CCCCCC"></path><path d="M107.56 21.8707C106.495 21.8707 105.735 21.7185 104.974 21.2621C104.213 20.9578 103.757 20.3493 103.452 19.5886C103.148 18.8279 102.996 17.9151 102.996 16.698C102.996 15.4809 103.148 14.5681 103.452 13.8074C103.757 13.0468 104.365 12.4382 104.974 12.1339C105.735 11.8297 106.495 11.5254 107.56 11.5254C108.473 11.5254 109.234 11.6775 109.994 12.1339C110.603 12.4382 111.059 13.0468 111.516 13.8074C111.82 14.5681 111.972 15.4809 111.972 16.698V17.3066H105.43C105.43 17.9151 105.582 18.3715 105.735 18.8279C105.887 19.2843 106.191 19.5886 106.495 19.7407C106.8 19.8929 107.256 20.045 107.712 20.045C108.017 20.045 108.321 20.045 108.473 19.8929C108.777 19.8929 108.929 19.7407 109.082 19.5886C109.234 19.4365 109.386 19.2843 109.538 18.9801C109.69 18.8279 109.69 18.5237 109.69 18.2194H112.124C112.124 18.8279 111.972 19.4365 111.82 19.8929C111.668 20.3493 111.364 20.8057 110.907 21.11C110.603 21.4142 110.147 21.5664 109.538 21.8707C108.777 21.7185 108.169 21.8707 107.56 21.8707ZM105.278 15.6331H109.234C109.234 15.3288 109.234 14.8724 109.082 14.7203C108.929 14.416 108.929 14.2639 108.777 14.1117C108.625 13.9596 108.473 13.8074 108.169 13.8074C108.017 13.6553 107.712 13.6553 107.408 13.6553C106.952 13.6553 106.647 13.8074 106.343 13.9596C106.039 14.1117 105.887 14.416 105.582 14.7203C105.43 14.7203 105.43 15.1767 105.278 15.6331Z" fill="#CCCCCC"></path><path d="M113.645 24.9156V11.8318H115.622L115.774 13.2011H115.927C116.231 12.7446 116.687 12.2882 117.144 11.984C117.6 11.6797 118.209 11.6797 118.817 11.6797C119.578 11.6797 120.186 11.8318 120.795 12.2882C121.404 12.5925 121.86 13.2011 122.012 13.9617C122.316 14.7224 122.468 15.6352 122.468 16.8524C122.468 18.0695 122.316 18.9823 122.012 19.743C121.708 20.5036 121.251 21.1122 120.795 21.4165C120.186 21.7207 119.578 21.8729 118.817 21.8729C118.361 21.8729 118.056 21.8729 117.752 21.7207C117.448 21.5686 117.144 21.4165 116.839 21.2643C116.535 21.1122 116.383 20.8079 116.079 20.5036H115.927V24.9156H113.645ZM118.056 19.743C118.513 19.743 118.969 19.5908 119.274 19.4387C119.578 19.2866 119.73 18.9823 119.882 18.5259C120.034 18.0695 120.034 17.6131 120.034 17.0045V16.5481C120.034 15.9395 120.034 15.4831 119.882 15.0267C119.73 14.5703 119.578 14.266 119.274 14.1139C118.969 13.9617 118.665 13.8096 118.056 13.8096C117.6 13.8096 117.296 13.9617 116.992 14.1139C116.687 14.266 116.535 14.7224 116.383 15.0267C116.231 15.4831 116.231 15.9395 116.231 16.5481V16.8524C116.231 17.3088 116.231 17.6131 116.383 18.0695C116.535 18.3737 116.535 18.678 116.687 18.9823C116.839 19.2866 116.992 19.4387 117.296 19.5908C117.296 19.5908 117.6 19.743 118.056 19.743Z" fill="#CCCCCC"></path><path d="M127.947 21.5668V8.93945H130.534V21.7189H127.947V21.5668Z" fill="#CCCCCC"></path><path d="M133.119 21.5686V11.8318H135.097L135.401 13.2011C135.553 12.8968 135.858 12.5925 136.162 12.4404C136.466 12.1361 136.77 11.984 137.227 11.8318C137.531 11.6797 137.988 11.6797 138.444 11.6797C139.052 11.6797 139.661 11.8318 140.117 11.984C140.574 12.2882 140.878 12.5925 141.182 13.0489C141.487 13.6575 141.487 14.266 141.487 15.0267V21.5686H139.052V15.4831C139.052 15.1788 139.052 14.8746 138.9 14.7224C138.9 14.5703 138.748 14.266 138.596 14.1139C138.444 13.9617 138.292 13.8096 138.14 13.8096C137.988 13.8096 137.683 13.6575 137.531 13.6575C137.227 13.6575 136.77 13.8096 136.466 13.9617C136.162 14.1139 136.01 14.4181 135.705 14.7224C135.553 15.0267 135.401 15.4831 135.401 15.7874V21.4165H133.119V21.5686Z" fill="#CCCCCC"></path><path d="M146.204 21.5668L142.705 11.8301H145.291L146.661 15.9378C146.661 16.0899 146.813 16.3942 146.965 16.6985C147.117 17.0027 147.117 17.4592 147.269 17.7634C147.421 18.2198 147.421 18.5241 147.573 18.8284C147.726 18.5241 147.726 18.2198 147.878 17.9156C148.03 17.4592 148.03 17.1549 148.182 16.8506C148.334 16.5463 148.334 16.2421 148.486 15.9378L149.856 11.8301H152.29L148.791 21.5668H146.204Z" fill="#CCCCCC"></path><path d="M157.613 21.8707C156.548 21.8707 155.787 21.7185 155.027 21.2621C154.266 20.9578 153.81 20.3493 153.505 19.5886C153.201 18.8279 153.049 17.9151 153.049 16.698C153.049 15.4809 153.201 14.5681 153.505 13.8074C153.81 13.0468 154.418 12.4382 155.027 12.1339C155.787 11.8297 156.548 11.5254 157.613 11.5254C158.526 11.5254 159.286 11.6775 160.047 12.1339C160.656 12.4382 161.112 13.0468 161.568 13.8074C161.873 14.5681 162.025 15.4809 162.025 16.698V17.3066H155.483C155.483 17.9151 155.635 18.3715 155.787 18.8279C155.939 19.2843 156.244 19.5886 156.548 19.7407C156.852 19.8929 157.309 20.045 157.765 20.045C158.069 20.045 158.374 20.045 158.526 19.8929C158.83 19.8929 158.982 19.7407 159.134 19.5886C159.286 19.4365 159.439 19.2843 159.591 18.9801C159.743 18.8279 159.743 18.5237 159.743 18.2194H162.177C162.177 18.8279 162.025 19.4365 161.873 19.8929C161.721 20.3493 161.416 20.8057 160.96 21.11C160.656 21.4142 160.199 21.5664 159.591 21.8707C158.83 21.7185 158.221 21.8707 157.613 21.8707ZM155.483 15.6331H159.439C159.439 15.3288 159.439 14.8724 159.286 14.7203C159.134 14.416 159.134 14.2639 158.982 14.1117C158.83 13.9596 158.678 13.8074 158.374 13.8074C158.221 13.6553 157.917 13.6553 157.613 13.6553C157.157 13.6553 156.852 13.8074 156.548 13.9596C156.244 14.1117 156.092 14.416 155.787 14.7203C155.635 14.7203 155.483 15.1767 155.483 15.6331Z" fill="#CCCCCC"></path><path d="M167.504 21.8729C166.895 21.8729 166.287 21.8729 165.83 21.7207C165.374 21.5686 164.918 21.4165 164.461 21.1122C164.157 20.8079 163.853 20.5036 163.548 20.1994C163.396 19.8951 163.244 19.4387 163.244 18.9823V18.8301V18.678H165.678C165.678 18.9823 165.83 19.2866 165.983 19.4387C166.135 19.5908 166.439 19.743 166.743 19.8951C167.048 20.0472 167.352 20.0472 167.656 20.0472C167.96 20.0472 168.265 20.0472 168.417 20.0472C168.721 20.0472 168.873 19.8951 169.025 19.743C169.177 19.5908 169.33 19.4387 169.33 19.1344C169.33 18.8301 169.177 18.678 169.025 18.3737C168.873 18.2216 168.569 18.0695 168.113 17.9173C167.808 17.7652 167.352 17.7652 166.895 17.6131C166.439 17.4609 166.135 17.4609 165.678 17.3088C165.222 17.1566 164.918 17.0045 164.613 16.8524C164.309 16.7002 164.005 16.396 163.853 16.0917C163.701 15.7874 163.548 15.331 163.548 14.7224C163.548 14.266 163.701 13.8096 163.853 13.3532C164.005 12.8968 164.309 12.5925 164.766 12.4404C165.07 12.1361 165.526 11.984 166.135 11.8318C166.591 11.6797 167.2 11.6797 167.808 11.6797C168.417 11.6797 168.873 11.6797 169.33 11.8318C169.786 11.984 170.242 12.1361 170.547 12.2882C170.851 12.4404 171.155 12.7446 171.307 13.2011C171.46 13.5053 171.612 13.9617 171.612 14.266C171.612 14.4181 171.612 14.4181 171.612 14.5703C171.612 14.7224 171.612 14.7224 171.612 14.7224H169.33V14.5703C169.33 14.4181 169.33 14.1139 169.177 13.9617C169.025 13.8096 168.873 13.6575 168.569 13.6575C168.265 13.5053 168.113 13.5053 167.656 13.5053C167.352 13.5053 167.2 13.5053 167.048 13.5053C166.895 13.5053 166.743 13.6575 166.591 13.6575C166.439 13.6575 166.287 13.8096 166.287 13.9617C166.287 14.1139 166.135 14.1139 166.135 14.266C166.135 14.4181 166.287 14.7224 166.439 14.7224C166.591 14.8746 166.895 15.0267 167.2 15.0267C167.504 15.1788 167.808 15.1788 168.113 15.331C168.569 15.4831 169.025 15.6352 169.482 15.6352C169.938 15.7874 170.395 15.9395 170.851 16.0917C171.307 16.2438 171.612 16.5481 171.764 17.0045C172.068 17.3088 172.068 17.9173 172.068 18.5259C172.068 19.1344 171.916 19.5908 171.764 20.0472C171.612 20.5037 171.307 20.8079 170.851 20.9601C170.395 21.2643 169.938 21.4165 169.482 21.5686C168.721 21.7207 168.113 21.8729 167.504 21.8729Z" fill="#CCCCCC"></path><path d="M176.327 21.8713C175.719 21.8713 175.262 21.7191 174.958 21.567C174.654 21.4149 174.349 21.1106 174.197 20.6542C174.045 20.1978 173.893 19.8935 173.893 19.4371V13.808H172.676V11.8303H173.893L174.349 9.0918H176.327V11.8303H178.001V13.808H176.327V18.8285C176.327 19.1328 176.327 19.2849 176.479 19.5892C176.631 19.7414 176.783 19.7414 177.088 19.7414H178.001V21.4149C177.848 21.4149 177.696 21.567 177.544 21.567C177.392 21.567 177.088 21.7191 176.936 21.7191C176.631 21.8713 176.479 21.8713 176.327 21.8713Z" fill="#CCCCCC"></path></svg> 